<svg xmlns="http://www.w3.org/2000/svg" width="20" height="21" fill="none" viewBox="0 0 20 21"><g clip-path="url(#clip0_260_5937)"><path fill="#050008" d="M1.655 3.527h.088l.295-.001.8-.001.632-.002 1.527-.002h.431l2.68-.002h.776l2.498-.004a1502 1502 0 0 1 4.004-.005l1.227-.001h.625a68 68 0 0 1 .78-.002c.617-.005 1.08.121 1.54.556.259.274.446.65.447 1.03l.001.12v.272l.001.383.002.413.002 1v.281l.002 1.755v.508l.004 1.634a671 671 0 0 1 .005 2.622v.802l.002.41.001.573c-.005.514-.207.918-.555 1.286-.313.295-.7.449-1.125.448h-.383l-.213.001h-.587l-.632.002-1.527.002h-.431l-2.68.003h-.775q-1.25 0-2.499.004a1566 1566 0 0 1-4.004.004q-.614.002-1.227.001l-.625.001a69 69 0 0 1-.78.001c-.617.005-1.08-.121-1.54-.555-.259-.275-.446-.651-.447-1.031l-.001-.12v-.131l-.001-.523-.001-.414-.003-1.281-.003-2.16v-.102l-.003-1.635a646 646 0 0 1-.005-2.621 140 140 0 0 1-.002-1.212V5.39l-.001-.129c.005-.514.208-.918.556-1.286a1.6 1.6 0 0 1 1.124-.447m.415 1.177c.184.216.184.216.378.421l.078.08.084.083.091.092.301.301 1.17 1.171 1.08 1.082.066.065 2.346 2.35 1.396 1.398.288.288.084.085c.205.203.343.285.64.293.274-.046.447-.243.633-.431a80 80 0 0 0 .627-.627l.542-.543.63-.631 2.218-2.22.068-.069.135-.135.068-.068.067-.067L16.1 6.58l.378-.378 1.255-1.257.08-.08.069-.069c.052-.046.052-.046.048-.092zm-.898.86v10a9 9 0 0 0 .486-.443l.059-.059.333-.333.377-.378.396-.396.747-.748.851-.852q.877-.876 1.75-1.753c-.061-.15-.157-.246-.272-.36l-.06-.06-.202-.202-.536-.536-.41-.41-1.483-1.481L1.292 5.64c-.067-.08-.067-.08-.12-.076m17.482.13-.058.058-.061.061-.206.206-.146.146-.4.4-.417.417-.79.79-.898.9-1.85 1.852c.062.15.158.246.273.36l.06.061.202.201.144.145.392.391.41.41 1.483 1.482.765.764 1.151 1.15c.067.08.067.08.12.075v-10c-.078 0-.122.078-.174.13M6.896 11.551c-.028.03-.028.03-.058.059l-.061.061-.206.205q-.072.074-.146.147l-.4.4-.416.416-3.012 3.011-.143.144-.254.254c-.09.074-.09.074-.13.174h15.86a8 8 0 0 0-.442-.486l-.06-.06-.193-.193-.14-.14-.378-.377-.395-.395-.749-.748-2.604-2.601-.203.172q-.148.132-.286.272l-.103.103a6 6 0 0 0-.241.266c-.51.586-1.06 1.206-1.863 1.335-.344.022-.652.002-.976-.117l-.093-.032c-.354-.148-.615-.445-.884-.71l-.14-.138a9 9 0 0 1-.567-.6 9 9 0 0 0-.387-.4c-.164-.175-.164-.175-.33-.022"/></g><defs><clipPath id="clip0_260_5937"><path fill="#fff" d="M0 .563h20v20H0z"/></clipPath></defs></svg>