<svg xmlns="http://www.w3.org/2000/svg" width="30" height="30" fill="none" viewBox="0 0 30 30"><g stroke="#050008" stroke-linecap="round" stroke-linejoin="round" stroke-width="2" clip-path="url(#clip0_203_16298)"><path d="M6.964 12.857a5.893 5.893 0 1 0 0-11.785 5.893 5.893 0 0 0 0 11.785m16.071 0a5.893 5.893 0 1 0 0-11.785 5.893 5.893 0 0 0 0 11.785M6.964 28.929a5.893 5.893 0 1 0 0-11.786 5.893 5.893 0 0 0 0 11.786m16.071 0a5.893 5.893 0 1 0 0-11.786 5.893 5.893 0 0 0 0 11.786"/></g><defs><clipPath id="clip0_203_16298"><path fill="#fff" d="M0 0h30v30H0z"/></clipPath></defs></svg>