<svg xmlns="http://www.w3.org/2000/svg" width="50" height="50" fill="none" viewBox="0 0 50 50"><path fill="#ff2d16" d="m37.46 3.357-5.88 12.38 12.96.26L19.857 49.49c1.523.313 3.072.484 4.627.51.57 0 1.142 0 1.708-.03l9.691-11.937-4.932 11.258a25 25 0 0 0 12.58-7.502 25.012 25.012 0 0 0-6.046-38.452z"/><path fill="#ff2d16" d="M19.813 33.088 24.953 23l-9.874-.194L25.494.005a25.2 25.2 0 0 0-6.12.637L9.346 22.974l6.886-21.372A25 25 0 0 0 4.01 11.436a25.02 25.02 0 0 0 1.905 29.739 25 25 0 0 0 13.377 8.192l6.391-16.146z"/></svg>